# xmcd CD database file
#
# Track frame offsets:
#	150
#	29824
#	66039
#	101331
#	125974
#	155502
#	183359
#	211463
#	254445
#
# Disc length: 4066 seconds
#
# Revision: 0
# Processed by: cddbd v1.5.2PL0 Copyright (c) Steve Scherf et al.
# Submitted via: CDex 1.51
#
DISCID=850fe009
DTITLE=ART BLAKEY - BLUE NOTE TSF-ART BLAKEY
DYEAR=1900
DGENRE=Jazz
TTITLE0=Quicksilver
TTITLE1=Like Someone in Love
TTITLE2=Hammer Head
TTITLE3=Down Under
TTITLE4=It's Only a Paper Moon
TTITLE5=Along Came Betty
TTITLE6=Blues March
TTITLE7=Moanin'
TTITLE8=A Night in Tunesia
EXTD=
EXTT0=
EXTT1=
EXTT2=
EXTT3=
EXTT4=
EXTT5=
EXTT6=
EXTT7=
EXTT8=
PLAYORDER=
